<svg width="388" height="63" viewBox="0 0 388 63" fill="none" xmlns="http://www.w3.org/2000/svg">
<path d="M18.5156 53.9128C10.2683 53.9128 3.60703 47.5688 3.60703 39.3215L3.60703 38.1584C3.60703 29.9639 10.2683 23.2498 18.5156 23.2498L18.5156 53.9128Z" fill="#326BDF"/>
<path d="M38.9922 2.69751C48.116 2.69751 55.4852 8.98342 55.4852 17.1551L55.4852 18.3075C55.4852 26.4268 48.116 33.0794 38.9922 33.0794L38.9922 2.69751Z" fill="#98D1FF"/>
<g filter="url(#filter0_d_3459_9155)">
<path d="M38.1328 2.69751C46.3801 2.69751 53.0414 9.04159 53.0414 17.2889L53.0414 18.452C53.0414 26.6464 46.3801 33.3606 38.1328 33.3606L38.1328 2.69751Z" fill="#326BDF"/>
</g>
<path d="M35.7344 2.69751C27.5225 2.69751 20.8654 9.35456 20.8654 17.5664L20.8654 53.9127C29.0773 53.9127 35.7344 47.2557 35.7344 39.0438L35.7344 2.69751Z" fill="#48ADFF"/>
<path d="M6.82031 21.4607C6.82031 21.4607 6.82031 21.003 6.82031 15.5113C6.82031 10.0197 11.3967 5.9008 16.4308 5.90088C21.4648 5.90095 22.8378 5.90088 21.9225 5.90088" stroke="#A8D8FF" stroke-width="1.83056" stroke-linecap="round"/>
<path d="M22.8359 56.7664C26.8051 59.1256 31.6017 59.1204 35.557 56.7337C38.0403 55.2352 40.9633 53.4655 43.9935 51.6206C50.5375 47.6357 52.7518 39.3117 53.0403 35.6477" stroke="#A8D8FF" stroke-width="1.83056" stroke-linecap="round"/>
<path d="M80.7662 47.0232C81.0051 47.0232 81.227 46.7843 81.4318 46.3064C81.6707 45.8285 81.7902 45.0435 81.7902 43.9512V19.3752C81.7902 18.2829 81.6707 17.5149 81.4318 17.0712C81.1929 16.5933 80.9539 16.3373 80.715 16.3032H97.5086C100.41 16.3032 102.748 16.7299 104.523 17.5832C106.332 18.4024 107.663 19.5971 108.517 21.1672C109.37 22.7032 109.797 24.5464 109.797 26.6968C109.797 28.8813 109.37 30.7757 108.517 32.38C107.663 33.9501 106.332 35.1619 104.523 36.0152C102.748 36.8344 100.41 37.244 97.5086 37.244H89.675V43.9512C89.675 45.0435 89.7945 45.8285 90.0334 46.3064C90.2723 46.7843 90.5113 47.0232 90.7502 47.0232H80.7662ZM91.7742 31.612H94.3342C96.3481 31.612 97.9011 31.4413 98.9934 31.1C100.12 30.7587 100.905 30.2296 101.349 29.5128C101.792 28.796 102.014 27.8573 102.014 26.6968C102.014 25.5704 101.775 24.6659 101.297 23.9832C100.854 23.3005 100.103 22.8227 99.0446 22.5496C98.0206 22.2424 96.6211 22.0888 94.8462 22.0888H91.7742C90.7161 22.0888 90.1017 22.1571 89.931 22.2936C89.7603 22.396 89.675 22.7885 89.675 23.4712V30.1784C89.675 30.8611 89.7603 31.2707 89.931 31.4072C90.1017 31.5437 90.7161 31.612 91.7742 31.612ZM119.336 47.0232C119.575 47.0232 119.797 46.7843 120.002 46.3064C120.241 45.8285 120.36 45.0435 120.36 43.9512V19.3752C120.36 18.2829 120.241 17.5149 120.002 17.0712C119.763 16.5933 119.524 16.3373 119.285 16.3032H136.079C139.082 16.3032 141.472 16.6787 143.247 17.4296C145.056 18.1805 146.353 19.2899 147.138 20.7576C147.957 22.1912 148.367 23.9832 148.367 26.1336C148.367 27.6696 148.076 29.0349 147.496 30.2296C146.95 31.4243 146.182 32.3971 145.192 33.148C144.202 33.8989 143.093 34.4451 141.864 34.7864V34.94C143.23 35.4861 144.663 36.5613 146.165 38.1656C147.667 39.7357 149.015 41.4936 150.21 43.4392C150.995 44.7021 151.712 45.6067 152.36 46.1528C153.009 46.6989 153.504 46.9891 153.845 47.0232H140.943C141.352 46.9891 141.676 46.7672 141.915 46.3576C142.188 45.9139 142.103 45.1971 141.659 44.2072C140.943 42.5688 140.072 41.1523 139.048 39.9576C138.024 38.7629 136.83 37.8584 135.464 37.244C134.133 36.5955 132.597 36.2712 130.856 36.2712H130.293C129.235 36.2712 128.62 36.3565 128.45 36.5272C128.279 36.6979 128.194 37.1245 128.194 37.8072V43.9512C128.194 45.0435 128.313 45.8285 128.552 46.3064C128.791 46.7843 129.03 47.0232 129.269 47.0232H119.336ZM130.293 31.1H134.491C136.642 31.1 138.195 30.7245 139.151 29.9736C140.106 29.1885 140.584 27.9085 140.584 26.1336C140.584 25.3485 140.414 24.6488 140.072 24.0344C139.731 23.42 139.151 22.9421 138.331 22.6008C137.546 22.2595 136.437 22.0888 135.003 22.0888H130.293C129.235 22.0888 128.62 22.14 128.45 22.2424C128.279 22.3448 128.194 22.7373 128.194 23.42V29.7176C128.194 30.4003 128.279 30.8099 128.45 30.9464C128.62 31.0488 129.235 31.1 130.293 31.1ZM174.583 47.5352C168.712 47.5352 164.462 46.1357 161.834 43.3368C159.24 40.5037 157.943 36.5613 157.943 31.5096C157.943 28.2669 158.506 25.4851 159.633 23.164C160.793 20.8088 162.585 18.9997 165.009 17.7368C167.466 16.4397 170.658 15.7912 174.583 15.7912H176.17C180.027 15.7912 183.15 16.4227 185.54 17.6856C187.963 18.9485 189.738 20.7576 190.865 23.1128C191.991 25.468 192.554 28.2669 192.554 31.5096C192.554 36.5613 191.257 40.5037 188.663 43.3368C186.069 46.1357 181.905 47.5352 176.17 47.5352H174.583ZM175.095 41.852H175.658C177.74 41.852 179.447 41.5107 180.778 40.828C182.144 40.1453 183.15 39.0531 183.799 37.5512C184.448 36.0152 184.772 34.0013 184.772 31.5096C184.772 29.0861 184.43 27.1405 183.748 25.6728C183.099 24.1709 182.092 23.0957 180.727 22.4472C179.396 21.7645 177.706 21.4232 175.658 21.4232H175.095C172.979 21.4232 171.221 21.7816 169.821 22.4984C168.422 23.1811 167.381 24.2563 166.698 25.724C166.05 27.1917 165.725 29.1203 165.725 31.5096C165.725 34.0013 166.067 36.0152 166.749 37.5512C167.466 39.0531 168.507 40.1453 169.873 40.828C171.272 41.5107 173.013 41.852 175.095 41.852ZM211.45 47.0232C211.723 46.9891 211.911 46.7331 212.013 46.2552C212.115 45.7773 211.928 44.9923 211.45 43.9C211.279 43.4563 210.921 42.6371 210.375 41.4424C209.828 40.2477 209.18 38.8141 208.429 37.1416C207.712 35.4691 206.927 33.7283 206.074 31.9192C205.255 30.076 204.452 28.3181 203.667 26.6456C202.916 24.9389 202.234 23.4541 201.619 22.1912C201.005 20.8941 200.561 19.9896 200.288 19.4776C199.708 18.3853 199.179 17.6003 198.701 17.1224C198.257 16.6104 197.916 16.3373 197.677 16.3032H209.299C209.095 16.3032 208.958 16.5421 208.89 17.02C208.822 17.4979 208.958 18.3171 209.299 19.4776C209.47 19.9555 209.743 20.7405 210.119 21.8328C210.528 22.9251 211.006 24.2221 211.552 25.724C212.098 27.1917 212.696 28.7789 213.344 30.4856C213.993 32.1581 214.641 33.8477 215.29 35.5544C215.972 37.2611 216.604 38.8653 217.184 40.3672H217.235C217.816 38.8312 218.447 37.2099 219.13 35.5032C219.812 33.7624 220.478 32.0387 221.127 30.332C221.775 28.6253 222.39 27.0381 222.97 25.5704C223.55 24.0685 224.045 22.7715 224.455 21.6792C224.864 20.5869 225.137 19.8189 225.274 19.3752C225.649 18.2488 225.803 17.4637 225.735 17.02C225.666 16.5421 225.513 16.3032 225.274 16.3032H236.538C236.333 16.3032 236.009 16.5421 235.565 17.02C235.155 17.4637 234.678 18.2317 234.131 19.324C233.892 19.8019 233.483 20.6723 232.903 21.9352C232.322 23.1981 231.64 24.6829 230.855 26.3896C230.07 28.0621 229.25 29.82 228.397 31.6632C227.578 33.4723 226.793 35.2301 226.042 36.9368C225.291 38.6093 224.625 40.0771 224.045 41.34C223.499 42.5688 223.123 43.4221 222.919 43.9C222.475 44.9923 222.287 45.7773 222.355 46.2552C222.458 46.7331 222.646 46.9891 222.919 47.0232H211.45ZM244.745 47.0232C244.984 47.0232 245.206 46.8013 245.411 46.3576C245.65 45.8797 245.769 45.0776 245.769 43.9512V19.3752C245.769 18.2829 245.65 17.4979 245.411 17.02C245.206 16.5421 244.984 16.3032 244.745 16.3032H254.627C254.388 16.3032 254.149 16.5421 253.91 17.02C253.671 17.4637 253.551 18.2659 253.551 19.4264V43.9512C253.551 45.0435 253.671 45.8285 253.91 46.3064C254.149 46.7843 254.388 47.0232 254.627 47.0232H244.745ZM264.865 47.0232C265.104 47.0232 265.343 46.7843 265.582 46.3064C265.821 45.8285 265.94 45.0435 265.94 43.9512V19.3752C265.94 18.2829 265.821 17.5149 265.582 17.0712C265.343 16.5933 265.104 16.3373 264.865 16.3032H274.9C274.661 16.3032 274.593 16.5421 274.695 17.02C274.832 17.4979 275.395 18.3171 276.385 19.4776C276.658 19.7507 277.102 20.2627 277.716 21.0136C278.365 21.7304 279.133 22.6008 280.02 23.6248C280.908 24.6488 281.846 25.7581 282.836 26.9528C283.86 28.1475 284.884 29.3421 285.908 30.5368C286.966 31.7315 287.973 32.8749 288.929 33.9672H288.98V19.3752C288.98 18.2829 288.861 17.5149 288.622 17.0712C288.383 16.5933 288.144 16.3373 287.905 16.3032H297.94C297.701 16.3032 297.462 16.5421 297.223 17.02C296.984 17.4979 296.865 18.3 296.865 19.4264V43.9512C296.865 45.0435 296.984 45.8285 297.223 46.3064C297.462 46.7843 297.701 47.0232 297.94 47.0232H289.134C289.339 47.0232 289.356 46.7843 289.185 46.3064C289.048 45.8285 288.519 45.0093 287.598 43.8488C287.12 43.2344 286.488 42.4493 285.703 41.4936C284.918 40.5037 284.031 39.4115 283.041 38.2168C282.085 37.0221 281.078 35.7763 280.02 34.4792C278.962 33.1821 277.904 31.9192 276.846 30.6904C275.822 29.4275 274.866 28.2669 273.979 27.2088H273.825V43.9512C273.825 45.0435 273.944 45.8285 274.183 46.3064C274.422 46.7843 274.661 47.0232 274.9 47.0232H264.865ZM319.449 47.0232C319.722 47.0232 320.012 46.8013 320.319 46.3576C320.627 45.8797 320.78 45.0776 320.78 43.9512L320.729 33.404C319.773 32.2093 318.732 30.9293 317.606 29.564C316.479 28.1987 315.37 26.8504 314.278 25.5192C313.186 24.188 312.196 22.9933 311.308 21.9352C310.455 20.8429 309.789 20.0237 309.311 19.4776C308.356 18.3171 307.554 17.4979 306.905 17.02C306.291 16.5421 305.864 16.3032 305.625 16.3032H317.708C317.469 16.3373 317.384 16.5933 317.452 17.0712C317.52 17.5491 317.947 18.3512 318.732 19.4776C319.108 19.9896 319.534 20.6211 320.012 21.372C320.524 22.0888 321.053 22.8739 321.599 23.7272C322.146 24.5805 322.675 25.4168 323.187 26.236C323.733 27.0552 324.228 27.8061 324.671 28.4888H324.723C325.235 27.7379 325.747 26.9869 326.259 26.236C326.771 25.4509 327.283 24.6829 327.795 23.932C328.307 23.1811 328.819 22.4301 329.331 21.6792C329.843 20.8941 330.355 20.1261 330.867 19.3752C331.652 18.2147 332.078 17.4125 332.147 16.9688C332.215 16.5251 332.13 16.3032 331.891 16.3032H343.667C343.462 16.3373 343.069 16.5763 342.489 17.02C341.909 17.4637 341.158 18.2317 340.236 19.324C339.724 19.9043 339.007 20.7405 338.086 21.8328C337.198 22.8909 336.208 24.1027 335.116 25.468C334.024 26.7992 332.898 28.1645 331.737 29.564C330.611 30.9293 329.57 32.2093 328.614 33.404V43.9512C328.614 45.0776 328.716 45.8797 328.921 46.3576C329.16 46.8013 329.399 47.0232 329.638 47.0232H319.449ZM349.307 47.0232C349.444 47.0232 349.785 46.7843 350.331 46.3064C350.911 45.8285 351.713 45.0605 352.737 44.0024C353.249 43.4563 353.932 42.7053 354.785 41.7496C355.673 40.7597 356.629 39.6845 357.653 38.524C358.711 37.3293 359.769 36.1347 360.827 34.94C361.885 33.7453 362.858 32.636 363.745 31.612C362.858 30.6221 361.885 29.5469 360.827 28.3864C359.803 27.1917 358.779 26.0141 357.755 24.8536C356.731 23.6931 355.792 22.652 354.939 21.7304C354.12 20.7747 353.471 20.0237 352.993 19.4776C352.004 18.3171 351.184 17.4979 350.536 17.02C349.921 16.5421 349.512 16.3032 349.307 16.3032H361.902C361.766 16.3032 361.749 16.5421 361.851 17.02C361.953 17.4979 362.329 18.3171 362.977 19.4776C363.285 20.0237 363.643 20.604 364.053 21.2184C364.496 21.7987 364.94 22.396 365.384 23.0104C365.828 23.6248 366.254 24.2051 366.664 24.7512C367.073 25.2632 367.415 25.7069 367.688 26.0824C367.995 26.4579 368.217 26.7309 368.353 26.9016H368.456C368.558 26.7309 368.746 26.4749 369.019 26.1336C369.326 25.7581 369.685 25.3144 370.094 24.8024C370.504 24.2563 370.93 23.6931 371.374 23.1128C371.852 22.4984 372.313 21.8669 372.757 21.2184C373.2 20.5699 373.61 19.9555 373.985 19.3752C374.668 18.2488 375.044 17.4637 375.112 17.02C375.214 16.5421 375.18 16.3032 375.009 16.3032H387.297C387.161 16.3032 386.802 16.5421 386.222 17.02C385.642 17.4637 384.857 18.2317 383.867 19.324C383.355 19.9043 382.672 20.6893 381.819 21.6792C380.966 22.6349 380.01 23.6931 378.952 24.8536C377.928 26.0141 376.887 27.1917 375.829 28.3864C374.805 29.5469 373.849 30.6221 372.961 31.612C373.849 32.636 374.805 33.7453 375.829 34.94C376.853 36.1347 377.877 37.3123 378.901 38.4728C379.925 39.6333 380.846 40.6915 381.665 41.6472C382.519 42.6029 383.184 43.3368 383.662 43.8488C384.72 45.0093 385.557 45.8285 386.171 46.3064C386.785 46.7843 387.178 47.0232 387.349 47.0232H375.214C375.487 47.0232 375.59 46.7843 375.521 46.3064C375.487 45.8285 375.044 45.0093 374.19 43.8488C373.849 43.3709 373.439 42.8419 372.961 42.2616C372.518 41.6813 372.057 41.1011 371.579 40.5208C371.101 39.9064 370.64 39.3432 370.197 38.8312C369.753 38.3192 369.377 37.8755 369.07 37.5C368.763 37.0904 368.541 36.8003 368.405 36.6296H368.302C368.2 36.7661 367.995 37.0221 367.688 37.3976C367.415 37.7731 367.073 38.2168 366.664 38.7288C366.288 39.2408 365.862 39.804 365.384 40.4184C364.906 40.9987 364.428 41.596 363.95 42.2104C363.506 42.7907 363.063 43.3709 362.619 43.9512C361.766 45.0776 361.305 45.8797 361.237 46.3576C361.168 46.8013 361.271 47.0232 361.544 47.0232H349.307Z" fill="#326BDF"/>
<defs>
<filter id="filter0_d_3459_9155" x="34.6606" y="2.69751" width="21.8507" height="37.6075" filterUnits="userSpaceOnUse" color-interpolation-filters="sRGB">
<feFlood flood-opacity="0" result="BackgroundImageFix"/>
<feColorMatrix in="SourceAlpha" type="matrix" values="0 0 0 0 0 0 0 0 0 0 0 0 0 0 0 0 0 0 127 0" result="hardAlpha"/>
<feOffset dy="3.47222"/>
<feGaussianBlur stdDeviation="1.73611"/>
<feComposite in2="hardAlpha" operator="out"/>
<feColorMatrix type="matrix" values="0 0 0 0 0 0 0 0 0 0 0 0 0 0 0 0 0 0 0.25 0"/>
<feBlend mode="normal" in2="BackgroundImageFix" result="effect1_dropShadow_3459_9155"/>
<feBlend mode="normal" in="SourceGraphic" in2="effect1_dropShadow_3459_9155" result="shape"/>
</filter>
</defs>
</svg>
